HIERARCHY
ROOT Hips
{
	OFFSET -0.179506 -22.333345 2.821913
	CHANNELS 6 Xposition Yposition Zposition Zrotation Yrotation Xrotation 
	JOINT LeftUpLeg
	{
		OFFSET 6.951974 -9.140623 -0.681533
		CHANNELS 3 Zrotation Yrotation Xrotation
		JOINT LeftLeg
		{
			OFFSET 3.427654 -37.519855 -0.449580
			CHANNELS 3 Zrotation Yrotation Xrotation
			JOINT LeftFoot
			{
				OFFSET -1.359570 -39.796059 -4.369333
				CHANNELS 3 Zrotation Yrotation Xrotation
				JOINT LeftToe
				{
					OFFSET 2.635814 -5.579078 11.928840
					CHANNELS 3 Zrotation Yrotation Xrotation
					End Site
					{
						OFFSET 0.000000 0.000000 0.000000
					}
				}
			}
		}
	}
	JOINT RightUpLeg
	{
		OFFSET -6.767048 -9.052170 -0.431982
		CHANNELS 3 Zrotation Yrotation Xrotation
		JOINT RightLeg
		{
			OFFSET -3.829005 -38.256897 -0.885003
			CHANNELS 3 Zrotation Yrotation Xrotation
			JOINT RightFoot
			{
				OFFSET 1.577377 -39.841461 -4.231180
				CHANNELS 3 Zrotation Yrotation Xrotation
				JOINT RightToe
				{
					OFFSET -2.537174 -4.814398 12.334795
					CHANNELS 3 Zrotation Yrotation Xrotation
					End Site
					{
						OFFSET 0.000000 0.000000 0.000000
					}
				}
			}
		}
	}
	JOINT Spine
	{
		OFFSET -0.253288 10.896323 -2.669631
		CHANNELS 3 Zrotation Yrotation Xrotation
		JOINT Spine1
		{
			OFFSET 0.548704 13.518043 0.109247
			CHANNELS 3 Zrotation Yrotation Xrotation
			JOINT Spine2
			{
				OFFSET 0.145701 5.292222 2.542457
				CHANNELS 3 Zrotation Yrotation Xrotation
				JOINT Neck
				{
					OFFSET -0.277840 21.387037 -4.285703
					CHANNELS 3 Zrotation Yrotation Xrotation
					JOINT Head
					{
						OFFSET 0.515184 6.496960 5.134897
						CHANNELS 3 Zrotation Yrotation Xrotation
						End Site
						{
							OFFSET 0.000000 0.000000 0.000000
						}
					}
				}
				JOINT LeftShoulder
				{
					OFFSET 7.884473 12.174932 -3.408961
					CHANNELS 3 Zrotation Yrotation Xrotation
					JOINT LeftArm
					{
						OFFSET 9.097692 3.046888 -0.886815
						CHANNELS 3 Zrotation Yrotation Xrotation
						JOINT LeftForeArm
						{
							OFFSET 25.961220 -1.277207 -2.745643
							CHANNELS 3 Zrotation Yrotation Xrotation
							JOINT LeftHand
							{
								OFFSET 24.923361 0.898606 -0.117091
								CHANNELS 3 Zrotation Yrotation Xrotation
								End Site
								{
									OFFSET 0.000000 0.000000 0.000000
								}
							}
						}
					}
				}
				JOINT RightShoulder
				{
					OFFSET -8.175920 11.883285 -3.861528
					CHANNELS 3 Zrotation Yrotation Xrotation
					JOINT RightArm
					{
						OFFSET -9.601238 3.255117 -0.914307
						CHANNELS 3 Zrotation Yrotation Xrotation
						JOINT RightForeArm
						{
							OFFSET -25.374195 -1.332924 -2.140099
							CHANNELS 3 Zrotation Yrotation Xrotation
							JOINT RightHand
							{
								OFFSET -25.529810 0.777228 -0.555919
								CHANNELS 3 Zrotation Yrotation Xrotation
								End Site
								{
									OFFSET 0.000000 0.000000 0.000000
								}
							}
						}
					}
				}
			}
		}
	}
}
MOTION
Frames: 14
Frame Time: 0.033333
9.069176 -101.930428 95.576012 179.996216 1.548611 82.089339 1.902918 -1.443305 -19.955165 1.274964 3.497001 15.778273 -6.740263 6.875540 1.029737 nan nan nan 3.053757 -7.608307 16.380843 1.517337 1.602480 -0.736669 7.310117 3.252677 -3.830453 nan nan nan 3.053090 7.791291 13.977851 0.086048 -1.482402 0.357489 0.439103 2.700600 1.490779 -0.020852 -4.490006 1.496956 4.749104 -7.597185 0.843825 -19.067348 8.368007 0.162061 -62.639658 -0.474896 8.709468 6.299929 -26.837987 -4.661796 1.332549 -13.227924 -30.497352 16.145042 -0.224447 -1.505346 57.232635 13.662080 12.062797 -5.915554 37.200705 -2.860098 3.435295 11.870738 -19.974299 
9.017717 -101.139702 95.393303 179.879029 1.717433 82.219636 1.826730 -1.027121 -20.169125 1.480714 3.181984 13.528787 -6.940207 6.589021 1.144218 nan nan nan 3.186785 -7.860870 17.138971 1.350401 1.976643 -1.359387 7.003805 3.230453 -4.036625 nan nan nan 3.194771 7.831244 13.607175 0.056276 -1.456151 0.698127 0.466754 2.793847 1.415845 -0.065492 -4.463212 1.634248 4.721792 -7.576147 0.596585 -19.216050 8.526169 0.218594 -62.586160 -0.102409 8.619032 6.387994 -27.048903 -4.528078 1.530172 -13.024115 -30.709915 16.228918 -0.005098 -1.452474 56.777321 14.015797 12.019831 -5.508298 37.407072 -2.596271 2.945193 11.769013 -19.676454 
8.948748 -100.352203 95.201401 179.518660 1.809173 82.284468 1.769460 -0.532070 -20.217412 1.569702 3.052755 11.238725 -6.957320 6.419539 1.316701 nan nan nan 3.175847 -8.004126 17.856753 1.203803 2.440366 -1.788545 6.827452 3.268072 -4.267042 nan nan nan 3.307532 7.908106 13.460151 -0.010738 -1.297865 0.858698 0.491248 2.955112 1.332202 -0.106735 -4.529895 1.640214 4.579017 -7.625072 0.582972 -19.428207 8.787351 0.156308 -62.406582 0.403871 8.495015 6.352643 -27.426824 -4.197428 1.697311 -12.747964 -30.670558 16.307319 0.138176 -1.468609 56.432775 14.302305 11.991469 -5.121246 37.571492 -2.316490 2.843584 11.832045 -19.420976 
8.898696 -99.560471 95.004341 179.251568 1.914567 82.385682 1.762161 -0.238522 -20.292876 1.647056 3.196699 9.036308 -6.952981 6.210893 1.561335 nan nan nan 3.184535 -8.159464 18.568939 1.081273 2.730025 -2.243469 6.757770 3.413837 -4.519085 nan nan nan 3.354461 8.013530 13.270601 -0.025308 -1.253727 0.901762 0.564771 3.136429 1.339929 -0.089609 -4.459164 1.459573 4.454910 -7.673569 0.806293 -19.378060 8.833957 0.141673 -62.556275 0.710958 8.490268 6.393717 -27.139702 -4.313115 1.548510 -12.738735 -30.607341 16.326462 0.341613 -1.391389 56.277916 14.598974 11.939497 -5.004649 37.550748 -2.465329 3.521556 11.999836 -19.562880 
8.847304 -98.753967 94.796768 179.129612 2.057529 82.500894 1.771269 0.048872 -20.439708 1.715559 3.472248 7.074078 -7.059477 5.903825 1.754888 nan nan nan 3.200477 -8.334708 19.368254 1.013403 2.864080 -2.857554 6.735324 3.545993 -4.748946 nan nan nan 3.362658 8.123692 12.978853 0.019551 -1.249507 0.942026 0.736041 3.188791 1.419324 -0.159020 -4.471035 1.418422 4.375613 -7.653073 0.887215 -19.239172 8.743925 0.250204 -62.960299 0.748116 8.591610 6.495915 -26.290680 -4.837930 1.738708 -12.850755 -30.796675 16.209396 0.585767 -1.279890 56.083713 14.921905 11.972201 -4.643281 37.425243 -2.662235 3.795705 12.174630 -20.226013 
8.769814 -97.955498 94.582718 178.940224 2.186203 82.565931 1.696571 0.439434 -20.496258 1.814995 3.648207 5.188108 -7.245719 5.803322 1.973873 nan nan nan 3.136566 -8.449859 20.164747 1.011956 3.056684 -3.379798 6.623386 3.659079 -4.987135 nan nan nan 3.475233 8.241049 12.906451 0.004457 -1.130425 0.855355 0.849877 3.170517 1.456012 -0.251363 -4.505678 1.521286 4.404251 -7.711387 0.773757 -19.291837 8.651588 0.336969 -63.123753 0.885935 8.594001 6.526917 -25.646438 -5.132502 1.481263 -12.910721 -30.921776 16.197710 0.697517 -1.291728 55.778935 15.122673 11.920410 -4.274758 37.473006 -2.632113 3.463588 12.250025 -20.074222 
8.720366 -97.132027 94.359108 178.694370 2.325520 82.715321 1.643866 0.882783 -20.678027 1.899049 3.943972 3.567099 -7.386216 5.905514 2.193856 nan nan nan 3.173681 -8.578662 20.801044 0.861359 3.401126 -3.773676 6.501026 3.684925 -5.220972 nan nan nan 3.566510 8.375258 12.576554 0.038307 -1.035858 0.987467 0.857075 3.229413 1.475765 -0.253236 -4.442983 1.622816 4.420413 -7.913558 0.558308 -19.275542 8.691688 0.315977 -63.057345 1.052502 8.617323 6.117554 -25.102900 -4.992348 -0.591122 -12.750661 -31.953537 16.350098 0.722507 -1.290251 55.577801 15.421412 11.963441 -4.422330 37.463612 -2.739203 4.106748 12.103626 -19.240462 
8.675632 -96.305008 94.129509 178.421580 2.492033 82.867458 1.676282 1.332733 -21.008354 1.917943 4.352286 2.434465 -7.699613 5.895378 2.243751 nan nan nan 3.189970 -8.729046 21.392240 0.749739 3.757127 -4.080425 6.488358 3.801164 -5.581477 nan nan nan 3.680092 8.493026 12.379775 0.058481 -1.006215 0.974126 0.885958 3.304099 1.474258 -0.263803 -4.408154 1.529412 4.364228 -7.936083 0.597061 -19.369785 8.730373 0.278354 -63.077403 1.423141 8.571411 6.200735 -25.053171 -5.043209 0.436148 -12.587447 -31.331054 16.476225 0.884888 -1.236083 55.163983 15.590672 11.939305 -3.866330 37.619897 -2.479611 3.570066 12.126073 -19.390312 
8.603800 -95.451477 93.893463 178.178028 2.591094 82.995232 1.678403 1.620415 -21.253336 1.925475 4.781398 1.456817 -7.924698 5.699232 2.280513 nan nan nan 3.015159 -8.856002 21.987949 0.808267 3.959899 -4.282676 6.376127 3.952401 -6.011076 nan nan nan 3.770998 8.595401 12.141021 0.061919 -0.989143 1.062094 0.860882 3.389584 1.437910 -0.185863 -4.354471 1.418194 4.301457 -8.055123 0.701735 -19.478264 8.865057 0.202076 -63.243047 1.595002 8.413433 6.532222 -24.486408 -5.171376 -0.450487 -12.552040 -31.169007 16.605091 0.988125 -1.180911 55.100293 15.828123 11.910833 -4.074577 37.529065 -2.670758 3.910260 12.191164 -19.087961 
8.551011 -94.568062 93.664078 177.999649 2.692238 83.102883 1.663367 1.717458 -21.437068 1.979525 5.358182 0.664772 -7.855956 5.617761 2.159759 nan nan nan 2.910942 -8.957219 22.665544 0.809979 4.109715 -4.566110 6.308585 4.049789 -6.314347 nan nan nan 3.787238 8.708406 11.889693 0.078765 -1.001988 1.174191 0.899029 3.455132 1.319193 -0.052077 -4.357834 1.350667 4.194442 -8.094818 0.831491 -19.623162 9.061873 0.258038 -63.483128 1.759161 8.114545 7.248686 -24.061718 -5.067662 -1.224511 -12.386680 -30.415932 16.693386 0.973055 -1.142108 55.194282 16.036562 11.824539 -4.306464 37.398165 -2.804093 4.204830 12.160926 -18.733346 
8.488099 -93.700012 93.438652 177.726452 2.782480 83.213380 1.686532 1.738773 -21.618181 2.024503 5.798206 0.130293 -7.693504 5.796616 1.842263 nan nan nan 2.805456 -9.049009 23.297489 0.746745 4.428612 -4.823425 6.195977 4.030401 -6.687677 nan nan nan 3.816826 8.893164 11.627204 0.119508 -0.978822 1.218296 0.950014 3.483414 1.346064 0.036633 -4.336228 1.192049 4.069877 -8.089430 0.892053 -19.699326 9.005247 0.320084 -63.313106 1.994765 8.271497 6.908897 -23.731259 -4.717113 -0.538384 -12.331903 -30.163571 16.854705 1.019268 -1.124731 54.832246 16.174116 11.856228 -3.809644 37.473798 -2.617339 3.651482 12.218548 -18.809824 
8.418387 -92.850189 93.228951 177.338856 2.815076 83.306718 1.791368 1.702747 -21.826500 1.985173 6.312985 -0.063809 -7.666160 5.874208 1.590313 nan nan nan 2.669403 -9.012995 23.857177 0.620503 4.827029 -4.967969 6.010010 3.895120 -7.145579 nan nan nan 3.839099 9.123347 11.432672 0.145306 -0.911714 1.299430 0.936742 3.512860 1.287482 0.140830 -4.282711 1.024018 3.972487 -8.270742 0.977225 -19.766164 9.031321 0.345459 -63.149115 2.078234 8.283843 6.391470 -23.108775 -4.574001 -2.440287 -12.457066 -31.338575 17.041288 0.996567 -1.050208 54.849915 16.407773 11.898901 -4.248607 37.328046 -3.028707 4.328040 12.034305 -18.222680 
8.367820 -91.970673 93.015778 176.928889 2.827465 83.393443 1.904317 1.706770 -22.033323 1.945731 6.687654 0.059300 -7.614146 5.908550 1.334888 nan nan nan 2.495686 -8.992350 24.390290 0.508463 5.228599 -4.968509 5.996735 3.945027 -7.632309 nan nan nan 3.717918 9.371101 11.160881 0.207505 -0.842276 1.368622 0.982075 3.600088 1.381296 0.321926 -4.212435 0.743386 3.886276 -8.376453 1.076990 -19.872278 9.180550 0.123379 -63.108895 2.232790 8.335066 6.281774 -22.709107 -4.516954 -2.060332 -12.560787 -31.118784 17.208285 0.975336 -1.061188 54.721616 16.555848 11.936876 -4.250612 37.257302 -3.073025 4.143862 12.139811 -17.845115 
8.307303 -91.066391 92.822540 176.549449 2.791107 83.384434 1.943109 1.693089 -22.072351 1.974507 6.834362 0.306203 -7.644592 5.945819 1.103508 nan nan nan 2.222018 -9.031689 25.021509 0.439582 5.537917 -4.934133 5.957130 4.050351 -8.057951 nan nan nan 3.616690 9.552700 10.914046 0.225274 -0.855191 1.630601 0.944821 3.741822 1.305475 0.489497 -4.084299 0.682047 3.897128 -8.359707 1.025518 -19.894669 9.216116 0.039649 -63.192688 2.444916 8.288953 6.491077 -22.378875 -4.463993 -2.280417 -12.379369 -30.878224 17.309913 1.062630 -0.955878 54.824797 16.659149 11.905108 -4.421833 37.119433 -3.269496 4.410836 12.086167 -17.877096 
